<svg id="Layer_1" data-name="Layer 1" xmlns="http://www.w3.org/2000/svg" xmlns:xlink="http://www.w3.org/1999/xlink" viewBox="0 0 100 100"><defs><style>.cls-1{fill:url(#linear-gradient);}.cls-2{fill:url(#linear-gradient-2);}.cls-3{fill:url(#linear-gradient-3);}.cls-4{fill:url(#linear-gradient-4);}.cls-5{fill:url(#linear-gradient-5);}.cls-6{fill:url(#linear-gradient-6);}.cls-7{fill:url(#linear-gradient-7);}.cls-8{fill:url(#linear-gradient-8);}.cls-9{fill:url(#linear-gradient-9);}.cls-10{fill:url(#linear-gradient-10);}.cls-11{fill:url(#linear-gradient-11);}.cls-12{fill:url(#linear-gradient-12);}.cls-13{fill:url(#linear-gradient-13);}.cls-14{fill:url(#linear-gradient-14);}.cls-15{fill:url(#linear-gradient-15);}</style><linearGradient id="linear-gradient" x1="191.73" y1="147" x2="103.44" y2="87.52" gradientUnits="userSpaceOnUse"><stop offset="0" stop-color="#e82582"/><stop offset="0.37" stop-color="#bc0f6b"/><stop offset="1" stop-color="#f268b1"/></linearGradient><linearGradient id="linear-gradient-2" x1="213.57" y1="114.58" x2="125.28" y2="55.1" xlink:href="#linear-gradient"/><linearGradient id="linear-gradient-3" x1="210.64" y1="118.93" x2="122.35" y2="59.45" xlink:href="#linear-gradient"/><linearGradient id="linear-gradient-4" x1="213.3" y1="114.99" x2="125" y2="55.51" xlink:href="#linear-gradient"/><linearGradient id="linear-gradient-5" x1="215.47" y1="111.75" x2="127.18" y2="52.27" xlink:href="#linear-gradient"/><linearGradient id="linear-gradient-6" x1="181.47" y1="162.23" x2="93.17" y2="102.75" xlink:href="#linear-gradient"/><linearGradient id="linear-gradient-7" x1="176.9" y1="169.02" x2="88.61" y2="109.53" xlink:href="#linear-gradient"/><linearGradient id="linear-gradient-8" x1="217.26" y1="109.11" x2="128.97" y2="49.62" xlink:href="#linear-gradient"/><linearGradient id="linear-gradient-9" x1="178.88" y1="166.07" x2="90.59" y2="106.59" xlink:href="#linear-gradient"/><linearGradient id="linear-gradient-10" x1="176.69" y1="169.33" x2="88.4" y2="109.85" xlink:href="#linear-gradient"/><linearGradient id="linear-gradient-11" x1="216.65" y1="110.01" x2="128.35" y2="50.53" xlink:href="#linear-gradient"/><linearGradient id="linear-gradient-12" x1="215.29" y1="112.02" x2="127" y2="52.54" xlink:href="#linear-gradient"/><linearGradient id="linear-gradient-13" x1="198.98" y1="136.24" x2="110.69" y2="76.76" xlink:href="#linear-gradient"/><linearGradient id="linear-gradient-14" x1="181.71" y1="161.87" x2="93.42" y2="102.39" xlink:href="#linear-gradient"/><linearGradient id="linear-gradient-15" x1="179.04" y1="165.84" x2="90.75" y2="106.36" xlink:href="#linear-gradient"/></defs><path class="cls-1" d="M88.44,52.44c-.08-.44-.19-.87-.29-1.3a37.68,37.68,0,0,1-3.33,21.79A36.86,36.86,0,0,1,69.73,89.08,1.74,1.74,0,0,1,69,88a38.85,38.85,0,0,0-2.28-5.5,8.93,8.93,0,0,0-4.26-4.21,19.78,19.78,0,0,0-2-.77,19.24,19.24,0,0,0-4.11-.78c-.82-.08-1.64-.19-2.46-.29,1.1-.25,2.22,0,3.34-.19-.24-.66-.46-1.23-.64-1.81A7.88,7.88,0,0,1,59,65.71a18,18,0,0,1,2.39-1.95c1.67-1.11,3.4-2.13,5.12-3.18,1-.6,1.14-1.08.66-2.14,0-.11-.1-.22-.16-.33a3.71,3.71,0,0,1-.7-2.91.75.75,0,0,0,0-.15.51.51,0,0,0-.38-.55l-.46-.18a.8.8,0,0,0,.15-1.21,1.48,1.48,0,0,0-.21-.3c-.61-.57-.85-1.17-.22-1.89a.74.74,0,0,0,.12-.27,1.08,1.08,0,0,0-.53-1.44,5.23,5.23,0,0,0-.93-.43,14.7,14.7,0,0,1-3-1.55,2.11,2.11,0,0,1-1.06-1.43,4.54,4.54,0,0,0-2-2.92,13.61,13.61,0,0,0-3.09-1.94c-.09,0-.15-.14-.25-.25a5.54,5.54,0,0,1,3.17.74A18,18,0,0,1,63.88,47l.45.63a15.66,15.66,0,0,0-2.15-3.31,3,3,0,0,1,.63.48l.77.75h0a1.07,1.07,0,0,0,.09.27,13.65,13.65,0,0,1,1.89,3.73,2.08,2.08,0,0,0,.2.35,7.53,7.53,0,0,0-1.14-3c-.31-.49-.69-.93-1-1.39A5,5,0,0,0,62,43.74C61,43,60,42.32,59,41.69a8.41,8.41,0,0,0-4.81-1.35,1.56,1.56,0,0,1-.73-.25c-.73-.46-1.41-1-2.15-1.4a6.41,6.41,0,0,0-5.94-.4c-1.32.57-2.63,1.2-4,1.76a16.1,16.1,0,0,0-6.71,5.34,2.72,2.72,0,0,1-.24.24c-.88-.79-1.55-.88-2.33-.27a2.11,2.11,0,0,1-1.33.53.62.62,0,0,0-.64.41,1.28,1.28,0,0,1-.69.72,4.83,4.83,0,0,0-1.64,1.66,9.15,9.15,0,0,0-.94,5.86L27,52.46a13.39,13.39,0,0,1,.9,2.5,1.84,1.84,0,0,0,1.6,1.41,7.58,7.58,0,0,0,1.17.07h.45l0,.16-1.81.9.41.14-1.08.43a3.74,3.74,0,0,0,2.56-1c.33-.33.61-.7.91-1.06.14-.17.28-.42.53-.27a1,1,0,0,1,.42.54A6.46,6.46,0,0,1,33,57.47c-.07.61-.17,1.21-.24,1.82a14.27,14.27,0,0,1-.2,1.6,7.52,7.52,0,0,0,0,3.71,11.11,11.11,0,0,0,2.11,4.32,4.91,4.91,0,0,1,1.05,2.48l.24,2a.77.77,0,0,0,.16-.48,6.7,6.7,0,0,0-1.51-4.43,10.54,10.54,0,0,1-2-4.93,5.42,5.42,0,0,1,0-.72c.13.15.2.19.22.25a13.37,13.37,0,0,0,2.83,4.86,1.38,1.38,0,0,1,.29.64c.15.77.26,1.55.38,2.32a22.3,22.3,0,0,1-.57,10c-.13.42-.24.85-.35,1.27A17.16,17.16,0,0,0,37,75.4a26.74,26.74,0,0,0-.79-6.8L39,70c.2,2.2.55,4.52.57,6.84,0,2-.2,4.13-1.85,5.72l.54-.29c-.28.6-.84.85-.91,1.55.57-.69,1-1.28,1.54-1.86,0-.06.19,0,.45-.11.18-.55.45-1.23.62-1.94a18.64,18.64,0,0,0,.27-5.27,7.5,7.5,0,0,1,.55-3.6c.26-.56.33-.58,1-.4a7.54,7.54,0,0,0-1.28,3.9c.3-.66.27-1.44.75-2a8.08,8.08,0,0,1-.12,1.31c-.07.41-.15.82-.25,1.22a2.07,2.07,0,0,0-.16,1.27,13.66,13.66,0,0,0,.82-3.41,10.81,10.81,0,0,1,.54-2.12c.48-1.15,1.07-2.26,1.61-3.38l.33-.72a1.48,1.48,0,0,1-.06.73c-1.1,4.4-2.31,8.78-3.26,13.21-.61,2.82-.84,5.72-1.22,8.59-.11.81-.13,1.64-.2,2.46a.69.69,0,0,1-.18,0,4.68,4.68,0,0,1-.48-.18,41.12,41.12,0,0,1-11-6.59A35.24,35.24,0,0,1,17,70.09a36.85,36.85,0,0,1-1.83-19,29.08,29.08,0,0,1,9.8-17.72A34.4,34.4,0,0,1,36.8,26.64a33.35,33.35,0,0,1,9-1.9A36.79,36.79,0,0,1,61.29,27.5a4.78,4.78,0,0,1,.56.3,3.3,3.3,0,0,1-.49,0c-1.78-.31-3.57-.65-5.36-.93a41.72,41.72,0,0,0-8.5-.64,18.32,18.32,0,0,0-2.55.32,4.45,4.45,0,0,0-2.31,1.14h.62a13.67,13.67,0,0,1,3.48.5,23.65,23.65,0,0,1,5.73,2.64C54.3,31.91,56.12,33,58,34a18.92,18.92,0,0,0,11.06,2,33.82,33.82,0,0,0,9.2-2.49c.26-.1.52-.22.83-.36a2.08,2.08,0,0,0-.23-.25c-1.64-1.34-3.24-2.71-4.91-4A38,38,0,0,0,51,21.06L50.67,21l.54-.24,2.76-1a62.28,62.28,0,0,1,9.81-3.06,3.63,3.63,0,0,0,1.9-1.05c1.2-1.16,2.43-2.28,3.65-3.42l.63-.54c-2.1.14-4.14.38-6.19.63a3,3,0,0,0-1.64.75,10.14,10.14,0,0,1-1.33,1,35.2,35.2,0,0,1-10.91,4.64c-.7.17-1.42.27-2.13.4L47.7,19l.35-.31a55.77,55.77,0,0,0,4.89-4.58A12.26,12.26,0,0,0,56,8.79a47,47,0,0,0,1.23-6.43c.07-.57.12-1.15.19-1.86-.35.18-.6.27-.82.41-1.17.72-2.34,1.43-3.49,2.19a16.36,16.36,0,0,0-7,9.61c-.37,1.35-.79,2.69-1.15,4A7.34,7.34,0,0,1,41.93,21a12.66,12.66,0,0,1-3.64,1.72A36,36,0,0,0,29,27,38.55,38.55,0,0,0,13,46.9a39.29,39.29,0,0,0-1.55,20.67,38.14,38.14,0,0,0,11,20.64A39.28,39.28,0,0,0,55.9,99.05a37.93,37.93,0,0,0,17.35-7.21,39.23,39.23,0,0,0,15.19-39.4ZM29.38,48.32a9.43,9.43,0,0,0-2,2.17A5,5,0,0,1,29.84,47,1.28,1.28,0,0,1,29.38,48.32Zm2.19,7.87-.11-.12.31-.33.1.07Z"/><path class="cls-2" d="M55.87,15c.21-.08.42-.14.62-.23a19.38,19.38,0,0,0,4.85-3.26,1.61,1.61,0,0,0,.45-.74c.32-1.13.61-2.26.91-3.4.07-.27.1-.56.16-.88C59.39,7.91,55.57,12.57,55.87,15Z"/><path class="cls-3" d="M62.81,18.26c-1.48.22-2.94.52-4.41.79-.32.06-.62.17-1.1.31a35.78,35.78,0,0,0,4.83,1.83,4.47,4.47,0,0,0,2.12.07c.38-.08.77-.12,1.15-.21l3.75-.95v-.22l-3.45-1.24A5.81,5.81,0,0,0,62.81,18.26Z"/><path class="cls-4" d="M67.37,15.71,66,17.33,68,18l1.36-1.59Z"/><path class="cls-5" d="M65.8,8.87c-.67.07-1.22.11-1.78.18a.57.57,0,0,0-.39.25c-.18.59-.32,1.2-.49,1.88l2.15-.3C65.46,10.2,65.62,9.57,65.8,8.87Z"/><path class="cls-6" d="M33.11,67.78c-1.73-3.73-1.58-7.51-.56-11.36-.07.15-.15.3-.21.45a15.36,15.36,0,0,0-.69,6.59,9.63,9.63,0,0,0,1.19,4A2.24,2.24,0,0,0,33.11,67.78Z"/><path class="cls-7" d="M36.7,69.27c.28,1.81.59,3.61.81,5.43a22.29,22.29,0,0,1-.36,5.47C38.33,76.48,37.66,72.86,36.7,69.27Z"/><path class="cls-8" d="M71.39,11.67a.86.86,0,0,0,.86-.82A.9.9,0,0,0,71.4,10a.87.87,0,0,0-.82.8A.83.83,0,0,0,71.39,11.67Z"/><path class="cls-9" d="M37.59,70.91h0v0h0v0Z"/><path class="cls-10" d="M37.55,80.24a.63.63,0,0,0,.08.11,5.16,5.16,0,0,0,1-3.1,34.69,34.69,0,0,0-.84-6.17c0-.06-.11-.11-.18-.16.2,1.2.39,2.4.58,3.6A8.56,8.56,0,0,1,37.55,80.24Z"/><path class="cls-11" d="M68.21,10.76A.76.76,0,0,0,69,10a.76.76,0,0,0-1.51,0A.76.76,0,0,0,68.21,10.76Z"/><path class="cls-12" d="M69.33,14.16a.72.72,0,0,0,.75.71.71.71,0,0,0,0-1.42A.74.74,0,0,0,69.33,14.16Z"/><path class="cls-13" d="M56.86,40.25c1,.34,1.92.8,2.88,1.21a11.92,11.92,0,0,0-6-2.06C54.8,39.68,55.85,39.91,56.86,40.25Z"/><path class="cls-14" d="M28.61,57.61l-3.75-.29A7,7,0,0,0,28.61,57.61Z"/><path class="cls-15" d="M37.53,70.28l.06.57.06-.57Z"/></svg>